<mxfile host="app.diagrams.net" agent="Mozilla/5.0 (Macintosh; Intel Mac OS X 10_15_7) AppleWebKit/605.1.15 (KHTML, like Gecko) Version/18.0.1 Safari/605.1.15" version="24.8.3">
  <diagram name="Page-1" id="c7488fd3-1785-93aa-aadb-54a6760d102a">
    <mxGraphModel dx="954" dy="552" grid="1" gridSize="10" guides="1" tooltips="1" connect="1" arrows="1" fold="1" page="1" pageScale="1" pageWidth="1100" pageHeight="850" background="none" math="0" shadow="0">
      <root>
        <mxCell id="0" />
        <mxCell id="1" parent="0" />
        <mxCell id="Oy91BMbdsR6l8gMQrDBX-6" value="" style="edgeStyle=orthogonalEdgeStyle;rounded=0;orthogonalLoop=1;jettySize=auto;html=1;" edge="1" parent="1" source="Oy91BMbdsR6l8gMQrDBX-1" target="Oy91BMbdsR6l8gMQrDBX-3">
          <mxGeometry relative="1" as="geometry" />
        </mxCell>
        <mxCell id="Oy91BMbdsR6l8gMQrDBX-1" value="PekaB40 website" style="strokeWidth=2;html=1;shape=mxgraph.flowchart.start_1;whiteSpace=wrap;" vertex="1" parent="1">
          <mxGeometry x="150" y="160" width="160" height="80" as="geometry" />
        </mxCell>
        <mxCell id="Oy91BMbdsR6l8gMQrDBX-5" value="" style="edgeStyle=orthogonalEdgeStyle;rounded=0;orthogonalLoop=1;jettySize=auto;html=1;" edge="1" parent="1" source="Oy91BMbdsR6l8gMQrDBX-2" target="Oy91BMbdsR6l8gMQrDBX-3">
          <mxGeometry relative="1" as="geometry" />
        </mxCell>
        <mxCell id="Oy91BMbdsR6l8gMQrDBX-2" value="DOSM data" style="strokeWidth=2;html=1;shape=mxgraph.flowchart.start_1;whiteSpace=wrap;" vertex="1" parent="1">
          <mxGeometry x="150" y="260" width="160" height="80" as="geometry" />
        </mxCell>
        <mxCell id="Oy91BMbdsR6l8gMQrDBX-8" value="" style="edgeStyle=orthogonalEdgeStyle;rounded=0;orthogonalLoop=1;jettySize=auto;html=1;" edge="1" parent="1" source="Oy91BMbdsR6l8gMQrDBX-3" target="Oy91BMbdsR6l8gMQrDBX-7">
          <mxGeometry relative="1" as="geometry" />
        </mxCell>
        <mxCell id="Oy91BMbdsR6l8gMQrDBX-3" value="Data processing" style="rounded=1;whiteSpace=wrap;html=1;absoluteArcSize=1;arcSize=14;strokeWidth=2;" vertex="1" parent="1">
          <mxGeometry x="450" y="190" width="150" height="120" as="geometry" />
        </mxCell>
        <mxCell id="Oy91BMbdsR6l8gMQrDBX-10" value="" style="edgeStyle=orthogonalEdgeStyle;rounded=0;orthogonalLoop=1;jettySize=auto;html=1;" edge="1" parent="1" source="Oy91BMbdsR6l8gMQrDBX-7" target="Oy91BMbdsR6l8gMQrDBX-9">
          <mxGeometry relative="1" as="geometry" />
        </mxCell>
        <mxCell id="Oy91BMbdsR6l8gMQrDBX-7" value="Exploratory Data Analysis" style="rounded=1;whiteSpace=wrap;html=1;absoluteArcSize=1;arcSize=14;strokeWidth=2;" vertex="1" parent="1">
          <mxGeometry x="650" y="190" width="150" height="120" as="geometry" />
        </mxCell>
        <mxCell id="Oy91BMbdsR6l8gMQrDBX-9" value="Simple Linear Regression" style="rounded=1;whiteSpace=wrap;html=1;absoluteArcSize=1;arcSize=14;strokeWidth=2;" vertex="1" parent="1">
          <mxGeometry x="840" y="190" width="150" height="120" as="geometry" />
        </mxCell>
      </root>
    </mxGraphModel>
  </diagram>
</mxfile>
